<svg width="120" height="15" viewBox="0 0 120 15" fill="none" xmlns="http://www.w3.org/2000/svg">
<path d="M9.719 11.2231H6.76658L2.00075 2.73286H1.93331C2.02823 4.23234 2.07568 5.30194 2.07568 5.94166V11.2231H0V0H2.92994L7.68827 8.40584H7.74073C7.66579 6.94729 7.62833 5.91607 7.62833 5.31218V0H9.719V11.2231Z" fill="#00FFF5"/>
<path d="M15.7737 4.14534C15.2891 4.14534 14.9095 4.30399 14.6347 4.62129C14.3599 4.93347 14.2026 5.37871 14.1626 5.95701H17.3698C17.3598 5.37871 17.2124 4.93347 16.9277 4.62129C16.6429 4.30399 16.2583 4.14534 15.7737 4.14534ZM16.0959 11.3767C14.7471 11.3767 13.693 10.9954 12.9337 10.2329C12.1743 9.47032 11.7947 8.39048 11.7947 6.99335C11.7947 5.55527 12.1444 4.44473 12.8438 3.66172C13.5481 2.87359 14.5198 2.47953 15.7587 2.47953C16.9427 2.47953 17.8644 2.82497 18.5238 3.51587C19.1832 4.20676 19.5129 5.16121 19.5129 6.37922V7.51535H14.1102C14.1351 8.18066 14.3275 8.7001 14.6871 9.0737C15.0468 9.44729 15.5514 9.63408 16.2008 9.63408C16.7054 9.63408 17.1825 9.58035 17.6321 9.47288C18.0817 9.36541 18.5513 9.19396 19.0408 8.95855V10.7702C18.6412 10.9749 18.2141 11.1259 17.7595 11.2231C17.3049 11.3255 16.7503 11.3767 16.0959 11.3767Z" fill="#00FFF5"/>
<path d="M24.7733 11.3767C22.1656 11.3767 20.8617 9.91044 20.8617 6.97799C20.8617 5.51945 21.2164 4.40635 21.9258 3.63869C22.6352 2.86592 23.6518 2.47953 24.9756 2.47953C25.9448 2.47953 26.814 2.674 27.5834 3.06295L26.909 4.87462C26.5493 4.7262 26.2146 4.60594 25.9048 4.51382C25.5951 4.41658 25.2854 4.36796 24.9756 4.36796C23.7867 4.36796 23.1922 5.23286 23.1922 6.96264C23.1922 8.64125 23.7867 9.48055 24.9756 9.48055C25.4153 9.48055 25.8224 9.4217 26.1971 9.30399C26.5717 9.18117 26.9464 8.99181 27.3211 8.73593V10.7395C26.9514 10.98 26.5767 11.1464 26.1971 11.2385C25.8224 11.3306 25.3478 11.3767 24.7733 11.3767Z" fill="#00FFF5"/>
<path d="M31.0903 6.91658C31.0903 7.76612 31.2252 8.40839 31.4949 8.8434C31.7697 9.2784 32.2143 9.49591 32.8288 9.49591C33.4382 9.49591 33.8754 9.28096 34.1401 8.85108C34.4099 8.41607 34.5448 7.77124 34.5448 6.91658C34.5448 6.06704 34.4099 5.42989 34.1401 5.00512C33.8704 4.58035 33.4282 4.36796 32.8138 4.36796C32.2043 4.36796 31.7647 4.58035 31.4949 5.00512C31.2252 5.42477 31.0903 6.06192 31.0903 6.91658ZM36.8827 6.91658C36.8827 8.31372 36.523 9.40635 35.8037 10.1945C35.0843 10.9826 34.0827 11.3767 32.7988 11.3767C31.9945 11.3767 31.2851 11.1975 30.6707 10.8393C30.0562 10.4759 29.5841 9.9565 29.2544 9.28096C28.9247 8.60542 28.7598 7.8173 28.7598 6.91658C28.7598 5.51433 29.117 4.42426 29.8314 3.64637C30.5458 2.86848 31.5499 2.47953 32.8438 2.47953C33.6481 2.47953 34.3574 2.65865 34.9719 3.01689C35.5864 3.37513 36.0584 3.88946 36.3882 4.55988C36.7179 5.2303 36.8827 6.01587 36.8827 6.91658Z" fill="#00FFF5"/>
<path d="M43.3721 11.3767C42.3879 11.3767 41.6161 11.0107 41.0566 10.2789H40.9367C41.0166 10.9954 41.0566 11.4099 41.0566 11.5225V15H38.7711V2.64074H40.6294L40.9517 3.75384H41.0566C41.5911 2.9043 42.3829 2.47953 43.432 2.47953C44.4211 2.47953 45.1955 2.87103 45.755 3.65404C46.3145 4.43705 46.5942 5.52457 46.5942 6.91658C46.5942 7.83265 46.4618 8.62846 46.1971 9.30399C45.9373 9.97953 45.5651 10.4939 45.0806 10.847C44.596 11.2001 44.0265 11.3767 43.3721 11.3767ZM42.6976 4.35261C42.1331 4.35261 41.721 4.53173 41.4612 4.88997C41.2015 5.24309 41.0666 5.82907 41.0566 6.6479V6.90123C41.0566 7.82242 41.189 8.4826 41.4537 8.88178C41.7235 9.28096 42.1481 9.48055 42.7276 9.48055C43.7517 9.48055 44.2638 8.61566 44.2638 6.88588C44.2638 6.04145 44.1364 5.40942 43.8816 4.98976C43.6318 4.565 43.2372 4.35261 42.6976 4.35261Z" fill="#00FFF5"/>
<path d="M50.3035 6.91658C50.3035 7.76612 50.4384 8.40839 50.7081 8.8434C50.9829 9.2784 51.4275 9.49591 52.042 9.49591C52.6514 9.49591 53.0886 9.28096 53.3533 8.85108C53.6231 8.41607 53.758 7.77124 53.758 6.91658C53.758 6.06704 53.6231 5.42989 53.3533 5.00512C53.0836 4.58035 52.6414 4.36796 52.027 4.36796C51.4175 4.36796 50.9779 4.58035 50.7081 5.00512C50.4384 5.42477 50.3035 6.06192 50.3035 6.91658ZM56.0959 6.91658C56.0959 8.31372 55.7362 9.40635 55.0169 10.1945C54.2975 10.9826 53.2959 11.3767 52.012 11.3767C51.2077 11.3767 50.4983 11.1975 49.8839 10.8393C49.2694 10.4759 48.7973 9.9565 48.4676 9.28096C48.1379 8.60542 47.973 7.8173 47.973 6.91658C47.973 5.51433 48.3302 4.42426 49.0446 3.64637C49.759 2.86848 50.7631 2.47953 52.0569 2.47953C52.8612 2.47953 53.5706 2.65865 54.1851 3.01689C54.7995 3.37513 55.2716 3.88946 55.6013 4.55988C55.9311 5.2303 56.0959 6.01587 56.0959 6.91658Z" fill="#00FFF5"/>
<path d="M65.7175 11.2231H63.432V6.21034C63.432 5.5911 63.3246 5.12794 63.1098 4.82088C62.895 4.5087 62.5528 4.35261 62.0832 4.35261C61.4437 4.35261 60.9816 4.57267 60.6969 5.01279C60.4121 5.4478 60.2698 6.17196 60.2698 7.18526V11.2231H57.9843V2.64074H59.7302L60.0375 3.73849H60.1649C60.4196 3.32395 60.7693 3.01177 61.2139 2.80194C61.6635 2.587 62.1731 2.47953 62.7426 2.47953C63.7167 2.47953 64.4561 2.75077 64.9607 3.29324C65.4652 3.8306 65.7175 4.6085 65.7175 5.62692V11.2231Z" fill="#00FFF5"/>
<path d="M79.3481 2.64074V3.8306L78.0367 4.17605C78.2765 4.55988 78.3964 4.98976 78.3964 5.46571C78.3964 6.3869 78.0817 7.10594 77.4522 7.62283C76.8278 8.1346 75.9585 8.39048 74.8445 8.39048L74.4324 8.36745L74.0952 8.32907C73.8604 8.51331 73.743 8.71801 73.743 8.94319C73.743 9.28096 74.1626 9.44985 75.0019 9.44985H76.4256C77.3448 9.44985 78.0442 9.652 78.5238 10.0563C79.0084 10.4606 79.2506 11.0542 79.2506 11.8373C79.2506 12.8403 78.841 13.6182 78.0217 14.1709C77.2074 14.7236 76.036 15 74.5073 15C73.3383 15 72.4441 14.7902 71.8247 14.3705C71.2102 13.956 70.903 13.3726 70.903 12.6203C70.903 12.1034 71.0603 11.6709 71.375 11.3229C71.6898 10.9749 72.1519 10.7267 72.7613 10.5783C72.5265 10.4759 72.3217 10.3096 72.1469 10.0793C71.972 9.84391 71.8846 9.5957 71.8846 9.3347C71.8846 9.00716 71.977 8.73593 72.1619 8.52098C72.3467 8.30092 72.614 8.08598 72.9637 7.87615C72.524 7.68168 72.1743 7.3695 71.9146 6.93961C71.6598 6.50972 71.5324 6.00307 71.5324 5.41965C71.5324 4.48311 71.8297 3.75896 72.4241 3.24719C73.0186 2.73541 73.8679 2.47953 74.9719 2.47953C75.2067 2.47953 75.4839 2.50256 75.8037 2.54862C76.1284 2.58956 76.3357 2.62027 76.4256 2.64074H79.3481ZM72.8812 12.436C72.8812 12.7584 73.0311 13.0118 73.3308 13.196C73.6356 13.3802 74.0602 13.4724 74.6047 13.4724C75.424 13.4724 76.0659 13.3572 76.5305 13.1269C76.9951 12.8966 77.2274 12.5819 77.2274 12.1827C77.2274 11.8603 77.09 11.6377 76.8153 11.5148C76.5405 11.392 76.1159 11.3306 75.5414 11.3306H74.3574C73.9378 11.3306 73.5856 11.4304 73.3009 11.63C73.0211 11.8347 72.8812 12.1034 72.8812 12.436ZM73.713 5.45036C73.713 5.91607 73.8154 6.28454 74.0202 6.55578C74.23 6.82702 74.5473 6.96264 74.9719 6.96264C75.4015 6.96264 75.7162 6.82702 75.9161 6.55578C76.1159 6.28454 76.2158 5.91607 76.2158 5.45036C76.2158 4.41658 75.8012 3.89969 74.9719 3.89969C74.1326 3.89969 73.713 4.41658 73.713 5.45036Z" fill="#00FFF5"/>
<path d="M86.0547 11.2231L85.6126 10.0563H85.5526C85.168 10.5527 84.7708 10.8982 84.3612 11.0926C83.9565 11.282 83.427 11.3767 82.7726 11.3767C81.9683 11.3767 81.3338 11.1412 80.8692 10.6704C80.4096 10.1996 80.1798 9.52917 80.1798 8.65916C80.1798 7.74821 80.4896 7.07779 81.109 6.6479C81.7335 6.2129 82.6727 5.97236 83.9266 5.92631L85.3803 5.88025V5.50409C85.3803 4.63408 84.9457 4.19908 84.0764 4.19908C83.407 4.19908 82.6202 4.40635 81.716 4.82088L80.9592 3.23951C81.9233 2.72262 82.9924 2.46418 84.1664 2.46418C85.2904 2.46418 86.1521 2.71494 86.7516 3.21648C87.3511 3.71801 87.6508 4.48055 87.6508 5.50409V11.2231H86.0547ZM85.3803 7.24667L84.4961 7.27738C83.8316 7.29785 83.3371 7.42068 83.0124 7.64585C82.6876 7.87103 82.5253 8.21392 82.5253 8.67451C82.5253 9.3347 82.895 9.66479 83.6343 9.66479C84.1639 9.66479 84.586 9.5087 84.9007 9.19652C85.2204 8.88434 85.3803 8.46981 85.3803 7.95292V7.24667Z" fill="#00FFF5"/>
<path d="M97.5122 11.2231H95.2267V6.21034C95.2267 5.5911 95.1243 5.12794 94.9194 4.82088C94.7196 4.5087 94.4024 4.35261 93.9678 4.35261C93.3833 4.35261 92.9587 4.57267 92.6939 5.01279C92.4291 5.45292 92.2967 6.17707 92.2967 7.18526V11.2231H90.0112V2.64074H91.7572L92.0644 3.73849H92.1918C92.4166 3.34442 92.7413 3.03736 93.166 2.8173C93.5906 2.59212 94.0777 2.47953 94.6272 2.47953C95.8811 2.47953 96.7304 2.89918 97.175 3.73849H97.3773C97.6021 3.3393 97.9318 3.02968 98.3664 2.80962C98.806 2.58956 99.3006 2.47953 99.8501 2.47953C100.799 2.47953 101.516 2.7303 102.001 3.23183C102.49 3.72825 102.735 4.52661 102.735 5.62692V11.2231H100.442V6.21034C100.442 5.5911 100.34 5.12794 100.135 4.82088C99.9351 4.5087 99.6178 4.35261 99.1832 4.35261C98.6237 4.35261 98.2041 4.55732 97.9243 4.96674C97.6496 5.37615 97.5122 6.0261 97.5122 6.91658V11.2231Z" fill="#00FFF5"/>
<path d="M108.558 4.14534C108.073 4.14534 107.693 4.30399 107.419 4.62129C107.144 4.93347 106.986 5.37871 106.946 5.95701H110.154C110.144 5.37871 109.996 4.93347 109.712 4.62129C109.427 4.30399 109.042 4.14534 108.558 4.14534ZM108.88 11.3767C107.531 11.3767 106.477 10.9954 105.717 10.2329C104.958 9.47032 104.578 8.39048 104.578 6.99335C104.578 5.55527 104.928 4.44473 105.628 3.66172C106.332 2.87359 107.304 2.47953 108.543 2.47953C109.726 2.47953 110.648 2.82497 111.308 3.51587C111.967 4.20676 112.297 5.16121 112.297 6.37922V7.51535H106.894C106.919 8.18066 107.111 8.7001 107.471 9.0737C107.831 9.44729 108.335 9.63408 108.985 9.63408C109.489 9.63408 109.966 9.58035 110.416 9.47288C110.865 9.36541 111.335 9.19396 111.825 8.95855V10.7702C111.425 10.9749 110.998 11.1259 110.543 11.2231C110.089 11.3255 109.534 11.3767 108.88 11.3767Z" fill="#00FFF5"/>
<path d="M120 8.67451C120 9.55476 119.7 10.2252 119.101 10.6858C118.506 11.1464 117.615 11.3767 116.426 11.3767C115.816 11.3767 115.297 11.3332 114.867 11.2462C114.437 11.1643 114.035 11.0415 113.661 10.8777V8.94319C114.085 9.1479 114.562 9.31935 115.092 9.45752C115.626 9.5957 116.096 9.66479 116.501 9.66479C117.33 9.66479 117.744 9.41914 117.744 8.92784C117.744 8.7436 117.69 8.59519 117.58 8.4826C117.47 8.36489 117.28 8.23439 117.01 8.0911C116.74 7.94268 116.381 7.77124 115.931 7.57677C115.287 7.30041 114.812 7.04452 114.507 6.80911C114.208 6.5737 113.988 6.30502 113.848 6.00307C113.713 5.69601 113.646 5.31986 113.646 4.87462C113.646 4.11208 113.933 3.52354 114.507 3.10901C115.087 2.68936 115.906 2.47953 116.965 2.47953C117.974 2.47953 118.956 2.70471 119.91 3.15507L119.221 4.84391C118.801 4.65967 118.409 4.5087 118.044 4.39099C117.68 4.27329 117.307 4.21443 116.928 4.21443C116.253 4.21443 115.916 4.40123 115.916 4.77482C115.916 4.98465 116.023 5.16633 116.238 5.31986C116.458 5.47339 116.935 5.70113 117.67 6.00307C118.324 6.27431 118.804 6.52764 119.108 6.76305C119.413 6.99847 119.638 7.2697 119.783 7.57677C119.928 7.88383 120 8.24974 120 8.67451Z" fill="#00FFF5"/>
</svg>
